<?xml version="1.0" standalone="no"?>
<!DOCTYPE svg PUBLIC "-//W3C//DTD SVG 20010904//EN"
 "http://www.w3.org/TR/2001/REC-SVG-20010904/DTD/svg10.dtd">
<svg version="1.0" xmlns="http://www.w3.org/2000/svg"
 width="274.000000pt" height="118.000000pt" viewBox="0 0 274.000000 118.000000"
 preserveAspectRatio="xMidYMid meet">

<g transform="translate(0.000000,118.000000) scale(0.100000,-0.100000)"
fill="#000000" stroke="none">
<path d="M0 590 l0 -590 1370 0 1370 0 0 590 0 590 -1370 0 -1370 0 0 -590z
m1793 444 c73 -9 138 -19 146 -23 7 -5 -20 -11 -63 -15 -106 -10 -401 -60
-531 -91 -120 -28 -154 -30 -240 -11 -54 11 -58 13 -39 24 32 17 116 50 254
99 l125 44 108 -5 c59 -3 167 -13 240 -22z m-785 -204 c8 -3 -69 -35 -177 -73
-274 -96 -288 -88 -57 30 112 57 124 61 171 56 27 -3 56 -9 63 -13z m1382
-136 c0 -40 -4 -55 -12 -52 -17 6 -21 48 -9 81 16 40 21 33 21 -29z m-2080
-16 c0 -21 -4 -38 -10 -38 -5 0 -10 24 -10 53 0 37 3 48 10 37 5 -8 10 -32 10
-52z m1655 -9 c105 -5 207 -12 228 -15 l37 -6 -47 -52 c-49 -53 -146 -179
-177 -228 l-17 -27 58 -46 c100 -80 98 -80 294 -69 204 11 201 10 197 119 l-3
70 -45 3 c-25 1 -132 -10 -237 -26 -106 -15 -193 -24 -193 -20 0 14 174 184
217 213 39 25 51 28 128 26 54 0 96 -6 114 -16 35 -18 97 -87 119 -134 l17
-33 -46 -42 -46 -41 -1 -80 c-1 -73 -4 -82 -27 -102 -16 -14 -39 -23 -58 -23
-18 0 -140 -5 -273 -11 l-241 -12 -65 37 c-52 29 -74 35 -112 34 -42 -2 -47
-5 -43 -23 5 -31 -34 -26 -50 6 -11 21 -19 14 -14 -14 2 -12 -27 -8 -32 6 -4
9 -8 8 -16 -3 -10 -13 -12 -13 -21 0 -6 10 -10 11 -10 3 0 -20 -20 -15 -21 5
-1 16 -2 16 -6 0 -3 -14 -14 -17 -44 -16 -32 1 -39 5 -40 22 -1 20 -1 20 -6 1
-10 -40 -52 -41 -54 -1 0 21 0 21 -9 -2 -13 -30 -50 -30 -51 1 l-2 22 -4 -22
c-2 -13 -9 -23 -14 -23 -5 0 -10 10 -10 23 l-2 22 -4 -22 c-3 -16 -11 -23 -29
-23 -13 0 -24 6 -24 13 0 8 -3 8 -8 2 -4 -6 -22 -11 -40 -12 -28 -1 -33 2 -29
18 4 14 0 19 -14 19 -12 0 -19 -7 -19 -18 0 -14 -8 -19 -32 -20 -18 0 -36 5
-40 11 -6 9 -8 9 -8 0 0 -21 -50 -16 -51 5 -1 16 -2 16 -6 0 -5 -21 -33 -24
-51 -6 -7 7 -12 8 -12 2 0 -6 -18 -11 -39 -12 -31 -1 -41 2 -46 18 -8 26 -49
21 -109 -14 -44 -26 -47 -26 -228 -25 -101 0 -232 4 -293 8 -141 11 -145 16
-145 145 l0 92 -40 39 c-22 21 -40 43 -40 48 0 15 114 129 139 138 13 5 64 10
112 10 85 1 90 0 131 -32 54 -41 208 -194 208 -207 0 -5 -34 -4 -82 4 -176 29
-317 45 -354 42 l-39 -3 -3 -70 c-4 -102 -1 -104 143 -115 66 -5 149 -10 184
-10 62 0 66 2 138 55 40 31 73 61 73 68 0 18 -58 100 -144 202 -42 50 -76 93
-76 96 0 12 55 18 266 29 368 19 862 19 1239 -1z m-1887 -14 c6 -14 20 -25 30
-25 10 0 21 -3 25 -6 8 -9 -45 -74 -60 -74 -19 0 -33 34 -33 78 0 57 19 70 38
27z m2556 -40 c-8 -38 -22 -65 -34 -65 -13 0 -60 63 -54 72 3 4 14 8 25 8 11
0 24 11 31 26 11 24 13 25 25 8 9 -12 11 -30 7 -49z m-2439 -292 c4 -24 11
-46 17 -49 10 -7 4 70 -9 102 -3 8 -1 14 5 14 5 0 16 -26 23 -57 l14 -58 50
-7 c28 -4 93 -8 147 -10 53 -2 94 -7 91 -11 -5 -9 -172 -3 -295 9 -55 6 -58 8
-58 32 0 15 -3 45 -6 67 -7 54 11 25 21 -32z m2309 5 c-4 -35 -7 -64 -8 -65
-6 -8 -340 -23 -347 -16 -4 4 42 9 104 11 169 5 178 8 193 66 17 67 28 71 19
7 -9 -65 10 -63 20 2 4 23 9 45 12 50 11 19 13 2 7 -55z m-729 -166 c-3 -3
-11 0 -18 7 -9 10 -8 11 6 5 10 -3 15 -9 12 -12z"/>
<path d="M1083 638 c3 -10 63 -13 257 -13 194 0 254 3 258 13 3 9 -53 12 -258
12 -205 0 -261 -3 -257 -12z"/>
<path d="M1075 360 c-121 -4 -228 -8 -237 -9 -21 -1 -134 -104 -120 -109 6 -2
37 12 69 30 l58 33 495 0 495 0 58 -33 c32 -18 63 -32 69 -30 5 2 -15 27 -44
55 l-54 51 -125 6 c-240 11 -446 13 -664 6z"/>
<path d="M1290 180 c0 -5 5 -10 10 -10 6 0 10 5 10 10 0 6 -4 10 -10 10 -5 0
-10 -4 -10 -10z"/>
<path d="M1530 180 c0 -5 5 -10 10 -10 6 0 10 5 10 10 0 6 -4 10 -10 10 -5 0
-10 -4 -10 -10z"/>
<path d="M1451 164 c0 -11 3 -14 6 -6 3 7 2 16 -1 19 -3 4 -6 -2 -5 -13z"/>
</g>
</svg>
